<svg xmlns="http://www.w3.org/2000/svg" viewBox="0 0 100 63.2">
  <style>
    :root { --bg: #FDDB00; }
    @media (prefers-color-scheme: dark) { :root { --bg: #FDDB00; } }
  </style>
  <rect width="100" height="63.2" fill="var(--bg)"/>
  <g transform="scale(0.0268) translate(0, 0)">
    
    <g id="Layer-1" serif:id="Layer 1" transform="matrix(4.90206,0,0,4.90206,-329.269458,-272.038916)">
        <g transform="matrix(1,0,0,1,133.4219,526.38)">
            <path d="M0,-26.397C-1.737,-27.966 -3.755,-28.919 -5.604,-28.919C-8.855,-28.919 -11.321,-25.724 -11.321,-18.887C-11.321,-12.217 -9.023,-9.471 -6.277,-9.471C-3.979,-9.471 -1.681,-10.76 0,-12.778L0,-26.397ZM-6.501,-33.571C-3.026,-33.571 -0.616,-32.282 1.177,-30.657C1.962,-31.946 3.195,-32.842 5.044,-33.235C5.941,-32.674 6.95,-31.273 7.174,-30.264C5.997,-29.143 5.604,-27.126 5.604,-24.94L5.604,-8.35C5.604,-1.905 4.708,1.29 2.971,3.475C1.177,5.717 -2.074,7.174 -6.333,7.174C-9.752,7.174 -13.451,6.333 -16.029,5.325C-15.973,3.868 -15.356,1.962 -14.516,0.954C-12.162,2.074 -9.079,2.691 -6.894,2.691C-1.177,2.691 0,-0.785 0,-5.1L0,-7.678C-1.85,-5.997 -4.483,-4.651 -7.454,-4.651C-13.955,-4.651 -17.206,-10.424 -17.206,-18.943C-17.206,-28.863 -11.77,-33.571 -6.501,-33.571" style="fill-rule:nonzero;"/>
        </g>
        <g transform="matrix(1,0,0,1,168.5625,509.7349)">
            <path d="M0,-4.708L11.321,-4.708L11.321,-5.437C11.321,-9.359 9.752,-12.61 5.717,-12.61C2.13,-12.61 0.28,-9.64 0,-4.708M0,-0.505C0.224,4.147 1.737,7.51 6.501,7.51C9.304,7.51 11.938,6.613 14.292,5.38C15.245,6.277 15.917,7.902 16.141,9.079C13.451,10.984 9.528,12.218 5.604,12.218C-3.25,12.218 -5.941,5.269 -5.941,-2.298C-5.941,-10.648 -2.018,-16.926 5.773,-16.926C13.002,-16.926 16.87,-11.602 16.87,-4.932C16.87,-3.139 16.758,-2.074 16.478,-0.505L0,-0.505Z" style="fill-rule:nonzero;"/>
        </g>
        <g transform="matrix(1,0,0,1,219.2275,484.5708)">
            <path d="M0,32.338C0.28,33.122 0.504,34.188 0.504,35.252C0.504,35.645 0.449,36.093 0.336,36.485C-0.953,36.709 -2.914,36.878 -4.427,36.878C-8.07,36.878 -9.976,34.972 -9.976,31.105L-9.976,-4.204L-9.583,-4.54L-7.398,-4.54C-4.988,-4.54 -4.259,-3.419 -4.259,-0.841L-4.259,29.816C-4.259,31.497 -3.587,32.338 -2.073,32.338L0,32.338Z" style="fill-rule:nonzero;"/>
        </g>
        <g transform="matrix(1,0,0,1,256.834,500.9347)">
            <path d="M0,13.06L0,7.735C-1.682,7.567 -3.475,7.511 -5.044,7.511C-8.407,7.511 -10.369,9.304 -10.369,12.331C-10.369,14.629 -9.023,16.422 -6.614,16.422C-4.484,16.422 -2.018,15.301 0,13.06M5.1,20.682C2.802,20.234 1.345,18.945 0.616,17.207C-1.401,19.168 -4.26,21.018 -7.847,21.018C-13.451,21.018 -16.141,16.758 -16.141,12.78C-16.141,6.39 -11.49,3.476 -5.38,3.476C-3.867,3.476 -1.85,3.588 0,3.869L0,1.682C0,-1.848 -1.682,-3.305 -4.596,-3.305C-7.398,-3.305 -10.48,-2.296 -13.395,-1.176C-14.348,-2.073 -15.021,-3.922 -15.077,-5.379C-11.938,-6.781 -7.23,-7.958 -3.475,-7.958C2.073,-7.958 5.716,-4.987 5.716,1.402L5.716,12.891C5.716,15.021 5.997,16.59 7.286,17.711C6.949,18.776 6.053,20.122 5.1,20.682" style="fill-rule:nonzero;"/>
        </g>
        <g transform="matrix(1,0,0,1,302.5669,488.3821)">
            <path d="M0,25.22L0,11.321C-1.738,10.199 -3.643,9.303 -5.549,9.303C-8.687,9.303 -11.209,12.554 -11.209,19.391C-11.209,26.061 -8.799,28.75 -6.109,28.75C-4.147,28.75 -1.738,27.686 0,25.22M-6.333,4.707C-4.036,4.707 -1.906,5.491 0,6.557L0,-8.015L0.392,-8.351L2.578,-8.351C4.988,-8.351 5.661,-7.23 5.661,-4.652L5.661,24.94C5.661,27.125 6.053,29.199 7.229,30.264C6.95,31.328 5.997,32.674 5.1,33.235C2.858,32.842 1.457,31.553 0.672,29.76C-1.233,31.946 -4.091,33.571 -7.454,33.571C-13.843,33.571 -17.094,27.741 -17.094,19.335C-17.094,9.359 -11.714,4.707 -6.333,4.707" style="fill-rule:nonzero;"/>
        </g>
        <g transform="matrix(1,0,0,1,344.0962,497.237)">
            <path d="M0,20.288C4.82,20.288 6.165,15.356 6.165,10.144C6.165,4.988 4.82,0 0,0C-4.82,0 -6.109,4.988 -6.109,10.144C-6.109,15.356 -4.82,20.288 0,20.288M8.126,21.634C6.053,23.707 3.307,24.716 0,24.716C-3.307,24.716 -6.053,23.707 -8.126,21.634C-11.097,18.663 -12.106,14.796 -12.106,10.144C-12.106,5.548 -11.097,1.625 -8.126,-1.346C-6.053,-3.419 -3.307,-4.428 0,-4.428C3.307,-4.428 6.053,-3.419 8.126,-1.346C11.097,1.625 12.106,5.548 12.106,10.144C12.106,14.796 11.097,18.663 8.126,21.634" style="fill-rule:nonzero;"/>
        </g>
        <g transform="matrix(1,0,0,1,423.1753,500.9347)">
            <path d="M0,13.06L0,7.735C-1.682,7.567 -3.475,7.511 -5.044,7.511C-8.407,7.511 -10.369,9.304 -10.369,12.331C-10.369,14.629 -9.023,16.422 -6.614,16.422C-4.484,16.422 -2.018,15.301 0,13.06M5.1,20.682C2.802,20.234 1.345,18.945 0.616,17.207C-1.401,19.168 -4.26,21.018 -7.847,21.018C-13.451,21.018 -16.141,16.758 -16.141,12.78C-16.141,6.39 -11.49,3.476 -5.38,3.476C-3.867,3.476 -1.85,3.588 0,3.869L0,1.682C0,-1.848 -1.682,-3.305 -4.596,-3.305C-7.398,-3.305 -10.481,-2.296 -13.395,-1.176C-14.348,-2.073 -15.021,-3.922 -15.077,-5.379C-11.938,-6.781 -7.23,-7.958 -3.475,-7.958C2.074,-7.958 5.716,-4.987 5.716,1.402L5.716,12.891C5.716,15.021 5.997,16.59 7.286,17.711C6.949,18.776 6.053,20.122 5.1,20.682" style="fill-rule:nonzero;"/>
        </g>
        <g transform="matrix(1,0,0,1,454.7842,521.4491)">
            <path d="M0,-28.304C2.634,-27.743 4.315,-25.95 5.1,-23.316C6.389,-26.174 8.687,-28.304 12.442,-28.304C13.451,-28.304 14.348,-28.192 15.413,-27.967C15.413,-26.398 15.02,-24.1 14.011,-22.475C13.283,-22.7 12.498,-22.7 11.713,-22.755C8.687,-22.755 6.894,-20.793 5.716,-18.495L5.716,-0.225C4.932,-0.057 3.867,0 2.858,0C1.793,0 0.729,-0.057 -0.056,-0.225L-0.056,-19.449C-0.056,-22.419 -1.177,-24.325 -2.13,-25.221C-1.85,-26.286 -0.953,-27.687 0,-28.304" style="fill-rule:nonzero;"/>
        </g>
        <g transform="matrix(1,0,0,1,506.7378,510.8009)">
            <path d="M0,-15.19C0,-14.405 -0.056,-13.732 -0.28,-13.003L-7.174,-13.116L-7.174,3.642C-7.174,5.155 -6.558,6.108 -4.876,6.108L-1.009,6.108C-0.729,6.892 -0.561,8.013 -0.561,9.022C-0.561,9.414 -0.561,9.863 -0.673,10.255C-2.522,10.479 -4.708,10.648 -6.95,10.648C-10.761,10.648 -12.834,8.742 -12.834,4.874L-12.834,-13.06L-16.982,-13.003C-17.15,-13.732 -17.206,-14.405 -17.206,-15.19C-17.206,-15.919 -17.15,-16.535 -16.982,-17.319L-12.834,-17.208L-12.834,-22.139C-12.834,-24.717 -12.162,-25.838 -9.752,-25.838L-7.566,-25.838L-7.174,-25.446L-7.174,-17.151L-0.28,-17.319C-0.056,-16.535 0,-15.919 0,-15.19" style="fill-rule:nonzero;"/>
        </g>
        <g transform="matrix(1,0,0,1,532.7988,509.7349)">
            <path d="M0,-4.708L11.321,-4.708L11.321,-5.437C11.321,-9.359 9.752,-12.61 5.717,-12.61C2.13,-12.61 0.28,-9.64 0,-4.708M0,-0.505C0.224,4.147 1.737,7.51 6.501,7.51C9.304,7.51 11.938,6.613 14.292,5.38C15.245,6.277 15.917,7.902 16.141,9.079C13.451,10.984 9.528,12.218 5.604,12.218C-3.25,12.218 -5.941,5.269 -5.941,-2.298C-5.941,-10.648 -2.018,-16.926 5.773,-16.926C13.002,-16.926 16.87,-11.602 16.87,-4.932C16.87,-3.139 16.758,-2.074 16.478,-0.505L0,-0.505Z" style="fill-rule:nonzero;"/>
        </g>
        <g transform="matrix(1,0,0,1,572.8716,499.6468)">
            <path d="M0,15.468C2.354,16.757 5.268,17.935 7.846,17.935C10.929,17.935 12.834,16.533 12.89,14.459C12.89,12.89 11.657,11.489 9.359,10.649L6.221,9.472C2.298,8.014 -0.897,5.716 -0.897,1.457C-0.897,-3.699 3.363,-6.838 8.967,-6.838C11.994,-6.838 15.805,-5.885 18.159,-4.82C18.159,-3.363 17.486,-1.458 16.421,-0.56C14.516,-1.458 11.713,-2.41 8.967,-2.41C6.501,-2.41 4.932,-1.065 4.932,0.84C4.932,2.466 6.053,3.363 8.407,4.259L11.77,5.548C15.917,7.117 18.887,9.64 18.887,13.955C18.887,19.167 14.459,22.306 8.183,22.306C4.091,22.306 0.504,20.961 -1.906,19.504C-1.85,18.215 -1.009,16.365 0,15.468" style="fill-rule:nonzero;"/>
        </g>
        <g transform="matrix(1,0,0,1,629.1406,500.9347)">
            <path d="M0,13.06L0,7.735C-1.682,7.567 -3.475,7.511 -5.044,7.511C-8.407,7.511 -10.369,9.304 -10.369,12.331C-10.369,14.629 -9.023,16.422 -6.614,16.422C-4.484,16.422 -2.018,15.301 0,13.06M5.1,20.682C2.802,20.234 1.345,18.945 0.616,17.207C-1.401,19.168 -4.26,21.018 -7.847,21.018C-13.451,21.018 -16.141,16.758 -16.141,12.78C-16.141,6.39 -11.49,3.476 -5.38,3.476C-3.867,3.476 -1.85,3.588 0,3.869L0,1.682C0,-1.848 -1.682,-3.305 -4.596,-3.305C-7.398,-3.305 -10.48,-2.296 -13.395,-1.176C-14.348,-2.073 -15.021,-3.922 -15.077,-5.379C-11.938,-6.781 -7.23,-7.958 -3.475,-7.958C2.073,-7.958 5.716,-4.987 5.716,1.402L5.716,12.891C5.716,15.021 5.997,16.59 7.286,17.711C6.949,18.776 6.053,20.122 5.1,20.682" style="fill-rule:nonzero;"/>
        </g>
        <g transform="matrix(1,0,0,1,682.271,499.3668)">
            <path d="M0,15.917C0,17.878 0.224,19.672 0.953,21.017C0.112,21.689 -1.289,22.25 -2.69,22.25C-4.988,22.25 -5.773,20.961 -5.773,18.551L-5.773,4.315C-5.773,0.561 -6.558,-1.065 -9.248,-1.065C-11.489,-1.065 -14.348,0.224 -16.31,2.409L-16.31,21.857C-17.094,22.025 -18.159,22.082 -19.167,22.082C-20.232,22.082 -21.241,22.025 -22.082,21.857L-22.082,-5.717L-21.746,-6.054L-19.56,-6.054C-17.374,-6.054 -16.478,-4.765 -16.365,-2.578C-13.956,-4.765 -10.817,-6.333 -7.454,-6.333C-2.186,-6.333 0,-2.298 0,2.858L0,15.917Z" style="fill-rule:nonzero;"/>
        </g>
        <g transform="matrix(1,0,0,1,721.7827,500.9347)">
            <path d="M0,13.06L0,7.735C-1.682,7.567 -3.475,7.511 -5.044,7.511C-8.407,7.511 -10.369,9.304 -10.369,12.331C-10.369,14.629 -9.023,16.422 -6.614,16.422C-4.484,16.422 -2.018,15.301 0,13.06M5.1,20.682C2.802,20.234 1.345,18.945 0.616,17.207C-1.401,19.168 -4.26,21.018 -7.847,21.018C-13.451,21.018 -16.141,16.758 -16.141,12.78C-16.141,6.39 -11.49,3.476 -5.38,3.476C-3.867,3.476 -1.85,3.588 0,3.869L0,1.682C0,-1.848 -1.682,-3.305 -4.596,-3.305C-7.398,-3.305 -10.481,-2.296 -13.395,-1.176C-14.348,-2.073 -15.021,-3.922 -15.077,-5.379C-11.938,-6.781 -7.23,-7.958 -3.475,-7.958C2.074,-7.958 5.716,-4.987 5.716,1.402L5.716,12.891C5.716,15.021 5.997,16.59 7.286,17.711C6.949,18.776 6.053,20.122 5.1,20.682" style="fill-rule:nonzero;"/>
        </g>
        <g transform="matrix(1,0,0,1,762.6948,484.5708)">
            <path d="M0,32.338C0.28,33.122 0.504,34.188 0.504,35.252C0.504,35.645 0.449,36.093 0.336,36.485C-0.953,36.709 -2.914,36.878 -4.427,36.878C-8.07,36.878 -9.976,34.972 -9.976,31.105L-9.976,-4.204L-9.583,-4.54L-7.398,-4.54C-4.988,-4.54 -4.259,-3.419 -4.259,-0.841L-4.259,29.816C-4.259,31.497 -3.587,32.338 -2.073,32.338L0,32.338Z" style="fill-rule:nonzero;"/>
        </g>
        <g>
            <clipPath id="_clip1">
                <path d="M213.232,29.35L213.232,305.615L213.934,323.977L222.437,316.516C225.86,316.425 229.315,316.925 232.65,318.061C240.937,320.888 255.372,329.143 267.872,353.218C271.847,346.223 276.042,339.555 279.625,334.724C283.792,329.112 288.523,324.624 293.686,321.389C307.79,312.639 322.466,314.726 334.012,327.09C338.62,332.068 342.266,338.495 344.897,346.245C345.17,347.007 345.91,349.205 349.096,358.994L351.077,365.086L351.024,365.189C352.14,368.831 353.313,372.79 354.532,377.028L355.553,380.369C357.312,386.128 358.972,391.57 359.904,393.446C363.445,400.592 366.625,403.631 369.16,404.912C368.739,402.135 368.527,399.296 368.527,396.399C368.527,379.245 373.14,362.944 382.235,347.948C384.933,343.455 388.457,339.295 392.677,335.64C400.24,328.745 408.915,324.469 418.464,322.922C427.362,321.498 436.228,322.539 444.876,326.001C451.883,321.984 459.665,321.28 467.129,324.058C475.728,327.284 481.576,334.25 483.629,343.681C484.049,345.579 484.5,348.687 484.849,358.051C484.952,360.263 484.681,362.025 484.509,362.893L484.415,363.326C482.844,370.164 481.747,374.906 481.074,377.759C479.711,385.047 478.984,392.347 478.916,399.467C478.926,399.626 478.937,399.778 478.948,399.925C484.987,395.026 495.123,381.654 505.215,363.385C503.344,359.773 502.087,355.764 501.453,351.387C500.104,341.265 502.295,331.323 507.767,322.464L508.111,321.928C512.431,315.534 518.478,310.784 525.6,308.19C537.898,303.79 549.626,305.928 558.706,314.173C563.746,318.728 567.098,324.436 568.571,330.903C572.448,330.176 576.168,329.534 578.956,329.169L580.271,329.055C584.963,328.839 589.659,329.059 593.859,329.688L594.758,329.851C602.406,331.46 608.876,334.724 613.989,339.559C619.891,345.168 623.217,352.357 623.633,360.376C623.957,365.389 623.184,371.064 621.327,377.058L621.244,377.317C620.31,380.159 618.937,384.095 617.046,389.35C615.334,394.097 614.129,397.424 613.382,399.456C612.715,401.658 612.162,403.863 611.727,406.059C613.524,405.168 616.355,403.497 620.607,400.376C627.536,395.19 635.135,388.352 643.154,380.079C645.174,368.803 649.279,358.022 655.393,347.948C658.09,343.452 661.614,339.293 665.834,335.64C670.739,331.168 676.12,327.817 681.897,325.577L681.897,29.35L213.232,29.35Z" clip-rule="nonzero"/>
            </clipPath>
            <g clip-path="url(#_clip1)">
                <g transform="matrix(1,0,0,1,453.4463,113.676)">
                    <path d="M0,-51.861L-16.27,-46.777L-36.862,-36.862C-36.862,-36.862 -51.607,-28.981 -51.607,-27.456C-51.607,-25.93 -58.472,-14.236 -58.472,-14.236L-62.539,-4.067L-48.557,-4.321L-20.592,-4.321L71.438,0L57.201,-37.879L30.253,-49.319L15.254,-50.082L0,-51.861Z" style="fill:rgb(255,218,0);fill-rule:nonzero;"/>
                </g>
                <g transform="matrix(0,-1,-1,0,447.7498,94.3265)">
                    <path d="M-223.114,-223.114C-346.337,-223.114 -446.228,-123.222 -446.228,-0.001C-446.228,123.222 -346.337,223.114 -223.114,223.114C-99.891,223.114 -0.001,123.222 -0.001,-0.001C-0.001,-123.222 -99.891,-223.114 -223.114,-223.114" style="fill:rgb(255,218,0);fill-rule:nonzero;"/>
                </g>
                <g transform="matrix(1,0,0,1,601.3726,161.945)">
                    <path d="M0,-97.296C-2.191,-97.296 -17.531,-94.228 -17.969,-92.475C-18.407,-90.722 -27.611,-76.259 -27.611,-76.259L-42.074,-53.907C-42.074,-53.907 -57.852,-31.993 -57.852,-30.679C-57.852,-29.364 -62.234,-17.53 -62.234,-17.53C-62.234,-17.53 -56.099,-9.203 -54.784,-9.203C-53.469,-9.203 -43.827,0 -42.512,-0.439C-41.197,-0.876 -36.814,-3.944 -35.938,-5.259C-35.062,-6.574 13.586,-61.796 13.586,-61.796L19.284,-78.889C19.284,-78.889 15.339,-94.666 12.71,-95.105C10.08,-95.543 0,-97.296 0,-97.296" style="fill:white;fill-rule:nonzero;"/>
                </g>
                <g transform="matrix(1,0,0,1,548.1348,176.9403)">
                    <path d="M0,76.569C-0.269,72.392 3.471,67.005 7.752,66.387C14.25,65.449 20.687,64.769 27.254,64.678C29.736,57.395 31.125,49.605 31.125,41.474C31.125,1.599 -1.201,-30.726 -41.077,-30.726C-80.952,-30.726 -113.277,1.599 -113.277,41.474C-113.277,49.878 -111.768,57.91 -109.129,65.411C-109.021,65.4 -108.914,65.38 -108.807,65.371C-102.261,64.837 -95.706,63.707 -89.136,64.476C-80.509,65.488 -73.866,67.812 -68.405,74.88C-64.853,79.477 -62.524,85.49 -62.598,91.459C-58.06,92.94 -53.605,93.389 -51.759,90.464C-50.509,88.483 -48.92,87.2 -47.201,86.425C-48.232,79.329 -46.316,72.055 -39.03,68.793C-27.76,63.746 -17.874,78.544 -25.764,85.343C-25.539,86.013 -25.335,86.691 -25.077,87.349C-23.994,90.488 -22.997,93.438 -22.452,96.748C-22.15,98.579 -22.013,100.414 -21.934,102.252C-18.749,104.297 -15.184,105.954 -11.611,107.295C-8.48,105.892 -5.467,104.273 -2.59,102.46C-2.237,93.863 0.538,84.922 0,76.569" style="fill:white;fill-rule:nonzero;"/>
                </g>
                <g transform="matrix(1,0,0,1,381.2095,131.8028)">
                    <path d="M0,108.812C7.084,108.812 13.772,110.047 19.941,112.283C24.804,110.94 29.812,110.153 34.871,110.153C35.821,110.153 36.739,110.252 37.676,110.296C33.868,101.531 31.742,91.868 31.742,81.695C31.742,46.658 56.704,17.469 89.811,10.896C77.774,1.913 62.893,-3.471 46.719,-3.471C6.843,-3.471 -25.482,28.854 -25.482,68.73C-25.482,84.195 -20.578,98.491 -12.299,110.239C-8.267,109.326 -4.148,108.812 0,108.812" style="fill:white;fill-rule:nonzero;"/>
                </g>
                <g transform="matrix(1,0,0,1,546.7515,83.5156)">
                    <path d="M0,49.856C0.134,49.682 0.271,49.512 0.408,49.34C0.883,48.741 1.339,48.108 1.787,47.459C-4.651,13.046 -34.8,-13.014 -71.08,-13.014C-102.447,-13.014 -129.207,6.483 -140.058,33.996C-127.52,35.514 -114.802,36.884 -102.884,41.115C-92.886,44.663 -84.671,50.273 -76.389,56.301C-60.631,52.265 -43.991,52.874 -28.87,58.024C-23.379,58.955 -17.875,60.497 -12.289,62.87C-8.102,58.61 -3.797,54.458 0,49.856" style="fill:white;fill-rule:nonzero;"/>
                </g>
                <g transform="matrix(1,0,0,1,612.687,386.234)">
                    <path d="M0,-292.835L-52.756,-230.186C-57.592,-234.828 -62.936,-238.91 -68.687,-242.356L-26.068,-310.543C-23.321,-314.964 -18.479,-317.647 -13.274,-317.634L-11.532,-317.634C-3.208,-317.625 3.539,-310.878 3.548,-302.554C3.544,-298.997 2.288,-295.557 0,-292.835M-36.1,-164.704C-36.1,-158.99 -36.716,-153.293 -37.936,-147.712L-64.42,-147.712C-67.549,-147.712 -70.084,-145.176 -70.084,-142.048L-70.084,-113.928C-70.044,-110.898 -72.343,-108.349 -75.361,-108.075C-75.486,-108.067 -75.611,-108.064 -75.736,-108.063C-78.868,-108.06 -81.409,-110.596 -81.413,-113.727L-81.413,-130.333C-81.413,-139.839 -89.192,-147.87 -98.697,-147.712C-107.963,-147.542 -115.388,-139.986 -115.397,-130.72L-115.397,-125.256C-115.357,-122.227 -117.656,-119.677 -120.673,-119.404C-120.798,-119.396 -120.924,-119.392 -121.049,-119.391C-124.181,-119.388 -126.722,-121.924 -126.726,-125.056L-126.726,-142.048C-126.726,-145.176 -129.261,-147.712 -132.39,-147.712L-192.857,-147.712C-194.078,-153.293 -194.694,-158.99 -194.694,-164.704C-194.726,-176.533 -192.086,-188.218 -186.972,-198.885C-177.876,-217.772 -161.728,-232.33 -142.003,-239.427C-140.571,-239.941 -139.213,-240.382 -137.819,-240.783C-130.538,-242.924 -122.987,-244.007 -115.397,-244.001C-102.813,-244.042 -90.404,-241.053 -79.219,-235.287L-79.205,-235.279C-52.759,-221.678 -36.125,-194.443 -36.1,-164.704M-30.436,-130.72L-30.436,-130.692C-30.444,-127.571 -32.979,-125.048 -36.1,-125.056L-58.756,-125.056L-58.756,-136.384L-36.079,-136.384C-32.957,-136.377 -30.43,-133.842 -30.436,-130.72M-138.054,-125.056L-273.992,-125.056C-277.12,-125.056 -279.656,-127.591 -279.656,-130.72C-279.656,-133.848 -277.12,-136.384 -273.992,-136.384L-138.054,-136.384L-138.054,-125.056ZM-194.694,-272.321C-204.305,-272.341 -213.857,-270.821 -222.987,-267.82C-217.873,-280.525 -209.577,-291.701 -198.898,-300.275C-184.875,-311.575 -167.391,-317.704 -149.382,-317.634C-113.031,-317.636 -81.334,-292.92 -72.476,-257.665L-78.76,-247.611C-97.431,-255.838 -118.326,-257.545 -138.084,-252.458C-154.151,-265.315 -174.116,-272.321 -194.694,-272.321M14.876,-302.554C14.86,-317.132 3.046,-328.946 -11.532,-328.962L-13.274,-328.962C-22.387,-328.988 -30.862,-324.291 -35.671,-316.551L-64.585,-270.289C-74.867,-297.593 -97.664,-318.276 -125.836,-325.859C-174.163,-338.867 -223.884,-310.236 -236.892,-261.91C-274.613,-242.062 -293.415,-198.617 -282.063,-157.532L-271.142,-160.547C-281.253,-197.272 -263.871,-236.007 -229.711,-252.864C-229.656,-252.89 -229.602,-252.915 -229.548,-252.941C-218.705,-258.273 -206.777,-261.028 -194.694,-260.993C-179.23,-260.99 -164.104,-256.467 -151.177,-247.979C-171.325,-239.245 -187.658,-223.555 -197.191,-203.773C-203.038,-191.58 -206.057,-178.226 -206.022,-164.704C-206.021,-159.002 -205.483,-153.313 -204.417,-147.712L-273.992,-147.712C-283.376,-147.712 -290.984,-140.104 -290.984,-130.72C-290.984,-121.335 -283.376,-113.727 -273.992,-113.727L-273.271,-113.727L-256.948,41.134C-256.565,43.94 -254.168,46.032 -251.335,46.032L-217.544,46.032C-217.805,44.811 -218.072,43.592 -218.359,42.377C-219.005,39.649 -219.699,37.122 -220.572,34.704L-246.391,34.704L-261.839,-113.727L-133.713,-113.727C-130.489,-110.12 -125.879,-108.06 -121.041,-108.063C-111.662,-108.068 -104.063,-115.676 -104.069,-125.056L-104.069,-130.72C-104.069,-133.848 -101.533,-136.384 -98.405,-136.384C-95.277,-136.384 -92.741,-133.848 -92.741,-130.72L-92.741,-113.727C-92.741,-104.343 -85.133,-96.734 -75.749,-96.734C-66.364,-96.734 -58.756,-104.343 -58.756,-113.727L-48.253,-113.727L-63.701,34.704L-155.75,34.704C-156.008,35.196 -156.302,35.669 -156.542,36.169C-157.637,38.44 -158.506,40.777 -159.376,43.561C-159.632,44.38 -159.849,45.208 -160.079,46.032L-58.756,46.032C-55.924,46.032 -53.527,43.94 -53.144,41.134L-36.82,-113.727L-36.1,-113.727C-30.305,-113.726 -24.908,-116.678 -21.782,-121.559C-16.719,-129.465 -19.023,-139.979 -26.929,-145.042C-20.935,-172.043 -27.597,-200.305 -45.021,-221.785L8.662,-285.531C12.673,-290.297 14.874,-296.324 14.876,-302.554" style="fill-rule:nonzero;"/>
                </g>
                <g transform="matrix(1,0,0,1,409.4629,234.3034)">
                    <path d="M0,-107.586C-0.843,-107.867 -71.911,-105.058 -78.653,-3.09C-76.687,0.281 -60.675,-0.843 -60.675,-0.843L-61.799,-19.944L-60.394,-47.473L-48.596,-74.72C-48.596,-74.72 -29.776,-92.698 -30.337,-93.821C-30.899,-94.945 0,-107.586 0,-107.586" style="fill:rgb(255,218,0);fill-rule:nonzero;"/>
                </g>
            </g>
        </g>
        <g transform="matrix(1,0,0,1,714.2285,391.4498)">
            <path d="M0,-16.791C-0.003,-16.779 -0.006,-16.766 -0.01,-16.755L-0.064,-16.567C-3.191,-6.949 -7.081,2.045 -11.634,10.195C-13.355,13.069 -15.494,15.5 -18.004,17.449C-20.395,19.278 -22.792,20.205 -25.132,20.205C-25.711,20.205 -26.289,20.147 -26.85,20.035C-29.762,19.455 -32.224,17.461 -34.165,14.105C-35.505,11.452 -36.143,8.588 -36.143,5.3C-36.398,-5.987 -33.444,-16.349 -27.363,-25.47C-23.726,-30.924 -19.34,-33.688 -14.329,-33.688C-9.485,-33.688 -5.592,-31.913 -2.756,-28.414C0.11,-24.863 1.037,-20.952 0,-16.791M-273.157,-16.791C-273.16,-16.779 -273.162,-16.77 -273.165,-16.759L-273.219,-16.571C-276.345,-6.954 -280.235,2.041 -284.79,10.195C-286.511,13.069 -288.649,15.5 -291.161,17.449C-293.551,19.278 -295.947,20.205 -298.288,20.205C-298.867,20.205 -299.444,20.147 -300.005,20.035C-302.919,19.455 -305.381,17.461 -307.321,14.105C-308.661,11.452 -309.3,8.588 -309.3,5.3C-309.555,-5.987 -306.601,-16.347 -300.519,-25.47C-296.881,-30.924 -292.497,-33.688 -287.486,-33.688C-282.642,-33.688 -278.748,-31.913 -275.912,-28.414C-273.046,-24.861 -272.119,-20.952 -273.157,-16.791M-582.688,-16.791C-582.692,-16.779 -582.695,-16.766 -582.699,-16.755L-582.753,-16.567C-585.875,-6.96 -589.764,2.035 -594.322,10.195C-596.042,13.067 -598.181,15.498 -600.693,17.449C-603.084,19.278 -605.48,20.205 -607.821,20.205C-608.399,20.205 -608.978,20.147 -609.538,20.035C-612.451,19.455 -614.913,17.461 -616.854,14.105C-618.194,11.45 -618.833,8.586 -618.833,5.3C-619.086,-5.989 -616.131,-16.349 -610.052,-25.47C-606.414,-30.924 -602.027,-33.688 -597.018,-33.688C-592.174,-33.688 -588.281,-31.913 -585.445,-28.414C-582.579,-24.863 -581.652,-20.952 -582.688,-16.791M16.373,11.014C21.282,30.921 30.009,42.767 43.047,47.224C60.246,53.169 78.201,51.251 96.414,41.531C99.157,40.099 101.925,38.417 104.656,36.531C106.2,34.206 105.971,30.957 104.055,28.197C102.145,25.449 98.042,22.766 92.737,24.221C82.148,29.847 69.379,35.331 54.879,33.487C28.254,30.127 27.469,-15.794 27.21,-30.886L27.17,-33.006C27.169,-33.046 27.171,-33.084 27.175,-33.122C26.885,-40.813 26.525,-43.384 26.337,-44.234C25.464,-48.245 23.591,-50.589 20.26,-51.838C16.915,-53.077 13.946,-52.555 10.647,-50.123C9.291,-48.916 5.318,-46.313 -0.83,-49.387C-7.141,-52.23 -13.587,-53.171 -19.956,-52.141C-26.326,-51.111 -32.181,-48.173 -37.358,-43.41C-40.339,-40.853 -42.781,-37.997 -44.643,-34.895C-50.419,-25.376 -54.019,-15.128 -55.343,-4.436L-55.391,-4.046C-55.416,-3.841 -55.506,-3.645 -55.649,-3.495L-55.919,-3.209C-65.724,7.215 -75.102,15.798 -83.793,22.303C-89.024,26.142 -93.322,28.764 -96.94,30.323C-101.801,32.196 -106.25,33.027 -110.166,32.809L-110.179,32.809C-113.226,32.809 -115.44,32.303 -116.911,31.262C-118.485,30.139 -119.402,28.23 -119.718,25.427C-119.934,24.271 -120.06,22.567 -120.063,20.701C-119.598,14.703 -118.43,8.681 -116.587,2.726C-115.848,0.718 -114.61,-2.7 -112.8,-7.719C-110.961,-12.832 -109.637,-16.627 -108.751,-19.319C-107.5,-23.358 -106.966,-27.023 -107.171,-30.199C-107.368,-34.011 -108.831,-37.157 -111.643,-39.831C-114.496,-42.527 -118.28,-44.387 -122.886,-45.355C-125.979,-45.815 -129.562,-45.978 -133.202,-45.815C-137.119,-45.299 -144.177,-44 -153.531,-42.064C-157.379,-41.424 -158.66,-41.536 -159.697,-41.967L-160.82,-42.438C-161.182,-42.591 -161.419,-42.945 -161.419,-43.338L-161.42,-53.701C-161.617,-58.199 -163.388,-62.012 -166.68,-64.986C-171.196,-69.089 -176.52,-69.96 -182.957,-67.66C-186.815,-66.255 -189.981,-63.755 -192.361,-60.23C-195.823,-54.624 -197.171,-48.622 -196.346,-42.427C-195.647,-37.596 -193.758,-33.812 -190.568,-30.87L-189.895,-30.252C-189.573,-29.955 -189.488,-29.48 -189.687,-29.089L-190.103,-28.274C-196.718,-15.353 -219.665,26.809 -237.206,26.813C-241.446,27.032 -244.484,26.324 -246.716,24.585C-249.059,22.765 -250.454,19.861 -251.106,15.453C-251.473,13.694 -251.749,11.336 -251.913,8.496C-251.87,0.038 -251.023,-8.559 -249.399,-17.117C-248.731,-19.945 -247.615,-24.762 -245.991,-31.841C-245.984,-31.887 -245.939,-32.251 -245.962,-32.674C-246.26,-40.729 -246.626,-43.372 -246.818,-44.234C-247.691,-48.245 -249.565,-50.589 -252.896,-51.838C-256.241,-53.077 -259.207,-52.555 -262.511,-50.123C-263.867,-48.914 -267.843,-46.313 -273.986,-49.387C-280.296,-52.23 -286.743,-53.171 -293.111,-52.141C-299.482,-51.111 -305.337,-48.173 -310.514,-43.41C-313.495,-40.853 -315.937,-37.997 -317.799,-34.895C-325.301,-22.531 -329.102,-9.127 -329.102,4.949C-329.102,12.337 -327.147,19.173 -323.292,25.268C-323.082,25.6 -323.09,26.025 -323.313,26.348C-326.271,30.611 -335.811,30.855 -339.884,30.961L-340.171,30.968C-344.667,31.069 -358.292,31.374 -369.197,9.367C-370.73,6.276 -372.327,1.043 -374.539,-6.195L-375.609,-9.695C-377.519,-16.343 -379.305,-22.264 -380.924,-27.308C-380.938,-27.352 -380.95,-27.397 -380.958,-27.443C-384.173,-37.329 -384.859,-39.351 -384.982,-39.673C-386.877,-45.308 -389.352,-49.793 -392.351,-53.033C-398.475,-59.594 -404.454,-60.507 -411.731,-55.993C-415.134,-53.861 -418.345,-50.779 -421.274,-46.834C-428.614,-36.942 -439.637,-16.907 -443.527,-6.385C-444.578,-3.543 -446.205,-2.868 -447.384,-2.801C-447.412,-2.801 -447.439,-2.799 -447.468,-2.799C-449.425,-2.799 -451.112,-4.163 -451.621,-6.139C-452.121,-8.091 -452.717,-9.864 -453.406,-11.918C-453.888,-13.349 -454.41,-14.906 -454.983,-16.755C-466.974,-48.704 -482.472,-56.155 -486.935,-57.677C-492.202,-59.474 -498.336,-57.52 -502.956,-52.583C-506,-49.304 -508.813,-44.437 -511.553,-37.713C-511.598,-37.6 -511.662,-37.501 -511.74,-37.417C-512.558,-35.34 -513.482,-32.903 -514.502,-30.218C-518.358,-20.058 -523.641,-6.141 -529.532,5.159C-536.707,18.918 -543.113,25.607 -549.116,25.607L-549.132,25.607C-552.702,25.813 -555.207,25.179 -557.002,23.598C-558.85,21.973 -559.959,19.324 -560.492,15.262C-560.816,13.502 -561.056,11.183 -561.198,8.418C-561.159,0.396 -560.453,-7.84 -559.101,-16.108L-558.931,-17.117C-558.351,-19.573 -555.337,-37.028 -556.365,-44.309C-556.892,-48.043 -558.875,-50.505 -562.428,-51.838C-565.771,-53.077 -568.74,-52.555 -572.042,-50.123C-573.399,-48.914 -577.376,-46.318 -583.519,-49.387C-589.828,-52.23 -596.275,-53.171 -602.644,-52.141C-609.015,-51.111 -614.87,-48.173 -620.046,-43.41C-623.027,-40.853 -625.47,-37.997 -627.332,-34.895C-634.833,-22.531 -638.635,-9.127 -638.635,4.949C-638.635,12.684 -636.519,19.781 -632.346,26.048C-627.577,33.313 -621.357,37.643 -613.326,39.288C-605.339,40.931 -597.93,39.31 -590.683,34.35C-587.078,31.946 -583.945,29.036 -581.36,25.691L-580.007,23.937C-579.788,23.653 -579.429,23.518 -579.08,23.569C-578.726,23.626 -578.432,23.872 -578.313,24.21L-577.576,26.3C-577.276,27.148 -576.47,29.022 -575.88,30.387C-575.622,30.985 -575.408,31.483 -575.298,31.752C-573.997,34.38 -572.467,36.638 -570.647,38.591C-566.108,43.465 -560.053,46.375 -552.653,47.236C-546.579,47.782 -540.939,46.838 -535.911,44.432C-519.233,36.462 -508.548,8.23 -500.747,-12.382C-498.527,-18.246 -496.431,-23.784 -494.471,-28.158C-492.737,-30.948 -491.081,-32.247 -489.346,-32.247C-484.275,-32.247 -477.944,-20.078 -473.527,-9.868C-470.776,-4.904 -467.738,1.289 -464.453,12.323C-464.011,13.938 -463.35,16.198 -462.429,19.213C-462.231,19.861 -461.851,21.174 -461.359,22.869C-460.218,26.809 -458.105,34.104 -456.645,38.52C-456.595,38.674 -456.553,38.823 -456.519,38.974C-456.09,40.853 -455.818,41.644 -455.722,41.897C-454.009,46.642 -451.538,48.569 -447.348,48.575C-443.061,48.701 -440.573,46.912 -438.982,42.58C-438.454,41.327 -437.721,38.632 -436.79,34.528C-432.102,14.765 -423.966,-5.03 -412.604,-24.317C-410.371,-28.108 -408.413,-30.119 -406.254,-30.83C-404.193,-31.505 -402.02,-30.378 -401.191,-28.222L-400.84,-27.31C-400.271,-25.838 -399.579,-24.049 -398.867,-22.011C-398.288,-20.24 -397.699,-18.349 -397.073,-16.272L-396.944,-15.811C-396.925,-15.77 -396.909,-15.729 -396.895,-15.685C-396.419,-14.102 -395.923,-12.428 -395.4,-10.662L-394.387,-7.248C-390.107,7.806 -386.391,18.474 -383.335,24.473C-376.229,38.287 -366.157,45.937 -352.548,47.851C-344.115,49.1 -317.71,50.106 -296.996,39.937C-296.876,39.878 -296.745,39.845 -296.612,39.84C-291.235,39.588 -286.177,37.791 -281.15,34.35C-277.545,31.946 -274.413,29.036 -271.828,25.691L-270.475,23.937C-270.256,23.653 -269.901,23.518 -269.546,23.569C-269.193,23.626 -268.899,23.872 -268.78,24.21L-268.044,26.3C-266.444,30.835 -264.073,34.557 -260.794,37.675C-255.848,42.384 -249.222,45.198 -241.101,46.037C-234.419,46.563 -228.216,45.645 -222.687,43.305C-199.985,33.684 -180.009,-5.721 -171.479,-22.548L-171.115,-23.265C-170.94,-23.612 -170.587,-23.835 -170.185,-23.799L-167.951,-23.664C-162.528,-23.669 -154.386,-24.755 -143.81,-26.889C-138.187,-28.025 -134.3,-28.603 -132.258,-28.603L-130.442,-28.603C-129.967,-28.603 -129.56,-28.26 -129.48,-27.79L-129.236,-26.358C-128.94,-24.693 -129.187,-22.722 -129.992,-20.334C-130.478,-18.977 -131.104,-17.308 -131.906,-15.269C-132.683,-13.305 -133.35,-11.465 -133.888,-9.798C-134.486,-7.963 -135.146,-6.266 -135.907,-4.605C-139.969,7.726 -141.608,18.47 -140.74,27.227C-140.128,33.317 -137.572,38.347 -133.142,42.176C-128.663,46.039 -122.5,48.509 -114.821,49.514C-108.894,50.176 -102.815,49.733 -97.264,48.238C-88.832,46.142 -81.194,42.708 -74.542,38.026C-67.937,33.512 -61.301,28.281 -54.809,22.473L-53.671,21.456C-53.449,21.256 -53.15,21.16 -52.853,21.222C-52.559,21.271 -52.304,21.454 -52.161,21.717L-51.435,23.06C-50.805,24.223 -50.24,25.173 -49.657,26.048C-44.889,33.313 -38.668,37.643 -30.638,39.288C-22.646,40.933 -15.238,39.31 -7.993,34.35C-2.932,30.976 1.114,26.725 4.043,21.708C4.738,20.459 8.275,14.078 11.738,7.299L13.445,3.955C13.614,3.626 13.953,3.424 14.315,3.424C14.367,3.424 14.42,3.427 14.472,3.437C14.891,3.504 15.218,3.835 15.281,4.255L15.839,7.968C16.001,9.051 16.191,10.26 16.373,11.014" style="fill-rule:nonzero;"/>
        </g>
    </g>

  </g>
</svg>